<?xml version="1.0" encoding="UTF-8"?>
<svg id="Outline" xmlns="http://www.w3.org/2000/svg" version="1.1" viewBox="0 0 512 512">
  <!-- Generator: Adobe Illustrator 29.5.1, SVG Export Plug-In . SVG Version: 2.1.0 Build 141)  -->
  <defs>
    <style>
      .st0 {
        fill: #fff;
      }
    </style>
  </defs>
  <path class="st0" d="M505.75,475.58l-127.34-127.34c74.7-91.36,61.19-225.97-30.17-300.67C256.89-27.13,122.27-13.62,47.57,77.74c-74.7,91.36-61.19,225.97,30.17,300.67,78.69,64.34,191.82,64.34,270.51,0l127.34,127.34c8.47,8.18,21.98,7.95,30.17-.52,7.98-8.27,7.98-21.37,0-29.64ZM213.33,384c-94.26,0-170.67-76.41-170.67-170.67S119.08,42.67,213.33,42.67s170.67,76.41,170.67,170.67c-.11,94.21-76.45,170.56-170.67,170.67Z"/>
</svg>